<mxfile host="app.diagrams.net" modified="2024-02-06T03:25:01.188Z" agent="Mozilla/5.0 (Macintosh; Intel Mac OS X 10_15_7) AppleWebKit/537.36 (KHTML, like Gecko) Chrome/121.0.0.0 Safari/537.36" etag="QEF6jDodmDYGxV2F_eAf" version="23.0.2" type="github">
  <diagram name="第 1 页" id="mlK23XWwbsO1bdcoR-AP">
    <mxGraphModel dx="1363" dy="787" grid="1" gridSize="10" guides="1" tooltips="1" connect="1" arrows="1" fold="1" page="1" pageScale="1" pageWidth="827" pageHeight="1169" math="0" shadow="0">
      <root>
        <mxCell id="0" />
        <mxCell id="1" parent="0" />
        <mxCell id="Ue5ERrAMfguvgAMBEAyv-38" value="" style="group;fontSize=16;whiteSpace=wrap;" vertex="1" connectable="0" parent="1">
          <mxGeometry x="33" y="314" width="1007" height="430" as="geometry" />
        </mxCell>
        <mxCell id="Ue5ERrAMfguvgAMBEAyv-13" value="" style="group;fontSize=16;whiteSpace=wrap;" vertex="1" connectable="0" parent="Ue5ERrAMfguvgAMBEAyv-38">
          <mxGeometry width="202.22120285423037" height="430" as="geometry" />
        </mxCell>
        <mxCell id="Ue5ERrAMfguvgAMBEAyv-1" value="&lt;font style=&quot;font-size: 20px;&quot;&gt;采集&lt;/font&gt;" style="rounded=0;whiteSpace=wrap;html=1;fontSize=20;" vertex="1" parent="Ue5ERrAMfguvgAMBEAyv-13">
          <mxGeometry width="202.22120285423034" height="39.47" as="geometry" />
        </mxCell>
        <mxCell id="Ue5ERrAMfguvgAMBEAyv-2" value="&lt;font style=&quot;font-size: 16px;&quot;&gt;采集&lt;/font&gt;" style="rounded=0;whiteSpace=wrap;html=1;fontSize=16;" vertex="1" parent="Ue5ERrAMfguvgAMBEAyv-13">
          <mxGeometry y="39.47" width="202.22120285423034" height="390.53" as="geometry" />
        </mxCell>
        <mxCell id="Ue5ERrAMfguvgAMBEAyv-10" value="文件" style="strokeWidth=2;html=1;shape=mxgraph.flowchart.document2;whiteSpace=wrap;size=0.25;fontSize=14;" vertex="1" parent="Ue5ERrAMfguvgAMBEAyv-13">
          <mxGeometry x="64.9236493374108" y="195" width="106.4322120285423" height="60" as="geometry" />
        </mxCell>
        <mxCell id="Ue5ERrAMfguvgAMBEAyv-11" value="交换数据库" style="strokeWidth=2;html=1;shape=mxgraph.flowchart.direct_data;whiteSpace=wrap;fontSize=14;" vertex="1" parent="Ue5ERrAMfguvgAMBEAyv-13">
          <mxGeometry x="63.859327217125376" y="102" width="106.4322120285423" height="60" as="geometry" />
        </mxCell>
        <mxCell id="Ue5ERrAMfguvgAMBEAyv-12" value="接口服务" style="strokeWidth=2;html=1;shape=mxgraph.flowchart.stored_data;whiteSpace=wrap;fontSize=14;" vertex="1" parent="Ue5ERrAMfguvgAMBEAyv-13">
          <mxGeometry x="63.859327217125376" y="290" width="106.4322120285423" height="60" as="geometry" />
        </mxCell>
        <mxCell id="Ue5ERrAMfguvgAMBEAyv-53" value="" style="endArrow=none;html=1;rounded=0;exitX=0.93;exitY=0.5;exitDx=0;exitDy=0;exitPerimeter=0;strokeWidth=2;" edge="1" parent="Ue5ERrAMfguvgAMBEAyv-13" source="Ue5ERrAMfguvgAMBEAyv-12">
          <mxGeometry width="50" height="50" relative="1" as="geometry">
            <mxPoint x="147" y="275" as="sourcePoint" />
            <mxPoint x="197" y="225" as="targetPoint" />
            <Array as="points">
              <mxPoint x="197" y="320" />
            </Array>
          </mxGeometry>
        </mxCell>
        <mxCell id="Ue5ERrAMfguvgAMBEAyv-14" value="" style="group;fontSize=16;whiteSpace=wrap;" vertex="1" connectable="0" parent="Ue5ERrAMfguvgAMBEAyv-38">
          <mxGeometry x="202.22120285423037" width="202.22120285423037" height="430" as="geometry" />
        </mxCell>
        <mxCell id="Ue5ERrAMfguvgAMBEAyv-15" value="&lt;span style=&quot;font-size: 20px;&quot;&gt;清洗&lt;/span&gt;" style="rounded=0;whiteSpace=wrap;html=1;fontSize=20;" vertex="1" parent="Ue5ERrAMfguvgAMBEAyv-14">
          <mxGeometry width="202.22120285423034" height="39.47" as="geometry" />
        </mxCell>
        <mxCell id="Ue5ERrAMfguvgAMBEAyv-16" value="" style="rounded=0;whiteSpace=wrap;html=1;fontSize=16;" vertex="1" parent="Ue5ERrAMfguvgAMBEAyv-14">
          <mxGeometry y="39.47" width="202.22120285423034" height="390.53" as="geometry" />
        </mxCell>
        <mxCell id="Ue5ERrAMfguvgAMBEAyv-45" value="" style="group;fontSize=14;whiteSpace=wrap;" vertex="1" connectable="0" parent="Ue5ERrAMfguvgAMBEAyv-14">
          <mxGeometry x="40.78" y="104" width="129.22" height="236" as="geometry" />
        </mxCell>
        <mxCell id="Ue5ERrAMfguvgAMBEAyv-54" style="edgeStyle=orthogonalEdgeStyle;rounded=0;orthogonalLoop=1;jettySize=auto;html=1;exitX=0.5;exitY=1;exitDx=0;exitDy=0;entryX=0.5;entryY=0;entryDx=0;entryDy=0;strokeWidth=2;" edge="1" parent="Ue5ERrAMfguvgAMBEAyv-45" source="Ue5ERrAMfguvgAMBEAyv-40" target="Ue5ERrAMfguvgAMBEAyv-41">
          <mxGeometry relative="1" as="geometry" />
        </mxCell>
        <mxCell id="Ue5ERrAMfguvgAMBEAyv-40" value="&lt;font style=&quot;font-size: 14px;&quot;&gt;电子证照数据或其数据资源&lt;/font&gt;" style="rounded=0;whiteSpace=wrap;html=1;fontSize=14;" vertex="1" parent="Ue5ERrAMfguvgAMBEAyv-45">
          <mxGeometry width="129.22" height="63.37037037037037" as="geometry" />
        </mxCell>
        <mxCell id="Ue5ERrAMfguvgAMBEAyv-55" style="edgeStyle=orthogonalEdgeStyle;rounded=0;orthogonalLoop=1;jettySize=auto;html=1;exitX=0.5;exitY=1;exitDx=0;exitDy=0;strokeWidth=2;" edge="1" parent="Ue5ERrAMfguvgAMBEAyv-45" source="Ue5ERrAMfguvgAMBEAyv-41" target="Ue5ERrAMfguvgAMBEAyv-42">
          <mxGeometry relative="1" as="geometry" />
        </mxCell>
        <mxCell id="Ue5ERrAMfguvgAMBEAyv-41" value="&lt;span style=&quot;font-size: 14px;&quot;&gt;数据清理策略、规则&lt;/span&gt;" style="rounded=0;whiteSpace=wrap;html=1;fontSize=14;" vertex="1" parent="Ue5ERrAMfguvgAMBEAyv-45">
          <mxGeometry x="0.3299999999999983" y="100.51851851851852" width="128.89" height="39.33333333333333" as="geometry" />
        </mxCell>
        <mxCell id="Ue5ERrAMfguvgAMBEAyv-42" value="&lt;span style=&quot;font-size: 14px;&quot;&gt;满足数据质量要求的数据&lt;/span&gt;" style="rounded=0;whiteSpace=wrap;html=1;fontSize=14;" vertex="1" parent="Ue5ERrAMfguvgAMBEAyv-45">
          <mxGeometry y="172.62962962962962" width="129.22" height="63.37037037037037" as="geometry" />
        </mxCell>
        <mxCell id="Ue5ERrAMfguvgAMBEAyv-20" value="" style="group;fontSize=16;whiteSpace=wrap;" vertex="1" connectable="0" parent="Ue5ERrAMfguvgAMBEAyv-38">
          <mxGeometry x="404.44240570846074" width="202.22120285423037" height="430" as="geometry" />
        </mxCell>
        <mxCell id="Ue5ERrAMfguvgAMBEAyv-21" value="&lt;span style=&quot;font-size: 20px;&quot;&gt;生成&lt;/span&gt;" style="rounded=0;whiteSpace=wrap;html=1;fontSize=20;" vertex="1" parent="Ue5ERrAMfguvgAMBEAyv-20">
          <mxGeometry width="202.22120285423034" height="39.47" as="geometry" />
        </mxCell>
        <mxCell id="Ue5ERrAMfguvgAMBEAyv-22" value="" style="rounded=0;whiteSpace=wrap;html=1;fontSize=16;" vertex="1" parent="Ue5ERrAMfguvgAMBEAyv-20">
          <mxGeometry y="39.47" width="202.22120285423034" height="390.53" as="geometry" />
        </mxCell>
        <mxCell id="Ue5ERrAMfguvgAMBEAyv-58" value="" style="rounded=0;whiteSpace=wrap;html=1;" vertex="1" parent="Ue5ERrAMfguvgAMBEAyv-20">
          <mxGeometry x="24.560000000000002" y="104" width="147.44" height="236" as="geometry" />
        </mxCell>
        <mxCell id="Ue5ERrAMfguvgAMBEAyv-68" value="结构化数据" style="rounded=0;whiteSpace=wrap;html=1;fontSize=14;" vertex="1" parent="Ue5ERrAMfguvgAMBEAyv-20">
          <mxGeometry x="41.5" y="141" width="113.5" height="63.37" as="geometry" />
        </mxCell>
        <mxCell id="Ue5ERrAMfguvgAMBEAyv-69" value="OFD文件" style="rounded=0;whiteSpace=wrap;html=1;fontSize=14;" vertex="1" parent="Ue5ERrAMfguvgAMBEAyv-20">
          <mxGeometry x="41.5" y="239" width="113.5" height="63.37" as="geometry" />
        </mxCell>
        <mxCell id="Ue5ERrAMfguvgAMBEAyv-70" value="电子证照" style="text;html=1;strokeColor=none;fillColor=none;align=center;verticalAlign=middle;whiteSpace=wrap;rounded=0;fontSize=14;" vertex="1" parent="Ue5ERrAMfguvgAMBEAyv-20">
          <mxGeometry x="68.27759429153929" y="60" width="60" height="30" as="geometry" />
        </mxCell>
        <mxCell id="Ue5ERrAMfguvgAMBEAyv-26" value="" style="group;fontSize=16;whiteSpace=wrap;" vertex="1" connectable="0" parent="Ue5ERrAMfguvgAMBEAyv-38">
          <mxGeometry x="602.5575942915393" width="202.22120285423037" height="430" as="geometry" />
        </mxCell>
        <mxCell id="Ue5ERrAMfguvgAMBEAyv-27" value="签章" style="rounded=0;whiteSpace=wrap;html=1;fontSize=20;" vertex="1" parent="Ue5ERrAMfguvgAMBEAyv-26">
          <mxGeometry width="202.22120285423034" height="39.47" as="geometry" />
        </mxCell>
        <mxCell id="Ue5ERrAMfguvgAMBEAyv-28" value="" style="rounded=0;whiteSpace=wrap;html=1;fontSize=16;" vertex="1" parent="Ue5ERrAMfguvgAMBEAyv-26">
          <mxGeometry y="39.47" width="202.22120285423034" height="390.53" as="geometry" />
        </mxCell>
        <mxCell id="Ue5ERrAMfguvgAMBEAyv-75" value="&lt;span style=&quot;font-size: 14px;&quot;&gt;数据清理策略、规则&lt;/span&gt;" style="rounded=0;whiteSpace=wrap;html=1;fontSize=14;" vertex="1" parent="Ue5ERrAMfguvgAMBEAyv-26">
          <mxGeometry x="36.663608562691024" y="202.32851851851848" width="128.89" height="39.33333333333333" as="geometry" />
        </mxCell>
        <mxCell id="Ue5ERrAMfguvgAMBEAyv-32" value="" style="group;fontSize=16;whiteSpace=wrap;" vertex="1" connectable="0" parent="Ue5ERrAMfguvgAMBEAyv-38">
          <mxGeometry x="804.7787971457695" width="202.22120285423037" height="430" as="geometry" />
        </mxCell>
        <mxCell id="Ue5ERrAMfguvgAMBEAyv-33" value="&lt;span style=&quot;font-size: 20px;&quot;&gt;上链&lt;/span&gt;" style="rounded=0;whiteSpace=wrap;html=1;fontSize=20;" vertex="1" parent="Ue5ERrAMfguvgAMBEAyv-32">
          <mxGeometry width="202.22120285423034" height="39.47" as="geometry" />
        </mxCell>
        <mxCell id="Ue5ERrAMfguvgAMBEAyv-34" value="" style="rounded=0;whiteSpace=wrap;html=1;fontSize=16;" vertex="1" parent="Ue5ERrAMfguvgAMBEAyv-32">
          <mxGeometry y="39.47" width="202.22120285423034" height="390.53" as="geometry" />
        </mxCell>
        <mxCell id="Ue5ERrAMfguvgAMBEAyv-39" value="&lt;font style=&quot;font-size: 14px;&quot;&gt;区块链&lt;/font&gt;" style="text;html=1;strokeColor=none;fillColor=none;align=center;verticalAlign=middle;whiteSpace=wrap;rounded=0;fontSize=14;" vertex="1" parent="Ue5ERrAMfguvgAMBEAyv-32">
          <mxGeometry x="72.22120285423046" y="80" width="60" height="30" as="geometry" />
        </mxCell>
        <mxCell id="Ue5ERrAMfguvgAMBEAyv-76" value="" style="rounded=0;whiteSpace=wrap;html=1;" vertex="1" parent="Ue5ERrAMfguvgAMBEAyv-32">
          <mxGeometry x="28.50360856269117" y="111" width="147.44" height="236" as="geometry" />
        </mxCell>
        <mxCell id="Ue5ERrAMfguvgAMBEAyv-77" value="区块链节点1" style="rounded=0;whiteSpace=wrap;html=1;fontSize=14;" vertex="1" parent="Ue5ERrAMfguvgAMBEAyv-32">
          <mxGeometry x="45.44" y="147" width="114.56" height="33" as="geometry" />
        </mxCell>
        <mxCell id="Ue5ERrAMfguvgAMBEAyv-79" value="区块链节点2" style="rounded=0;whiteSpace=wrap;html=1;fontSize=14;" vertex="1" parent="Ue5ERrAMfguvgAMBEAyv-32">
          <mxGeometry x="44.93999999999994" y="210" width="114.56" height="33" as="geometry" />
        </mxCell>
        <mxCell id="Ue5ERrAMfguvgAMBEAyv-80" value="区块链节点n" style="rounded=0;whiteSpace=wrap;html=1;fontSize=14;" vertex="1" parent="Ue5ERrAMfguvgAMBEAyv-32">
          <mxGeometry x="45.43999999999994" y="274.5" width="114.56" height="33" as="geometry" />
        </mxCell>
        <mxCell id="Ue5ERrAMfguvgAMBEAyv-49" style="edgeStyle=orthogonalEdgeStyle;rounded=0;orthogonalLoop=1;jettySize=auto;html=1;exitX=1;exitY=0.5;exitDx=0;exitDy=0;exitPerimeter=0;entryX=0.5;entryY=0;entryDx=0;entryDy=0;strokeWidth=2;" edge="1" parent="Ue5ERrAMfguvgAMBEAyv-38" source="Ue5ERrAMfguvgAMBEAyv-11" target="Ue5ERrAMfguvgAMBEAyv-40">
          <mxGeometry relative="1" as="geometry">
            <Array as="points">
              <mxPoint x="197" y="132" />
              <mxPoint x="197" y="84" />
              <mxPoint x="308" y="84" />
            </Array>
          </mxGeometry>
        </mxCell>
        <mxCell id="Ue5ERrAMfguvgAMBEAyv-50" style="edgeStyle=orthogonalEdgeStyle;rounded=0;orthogonalLoop=1;jettySize=auto;html=1;exitX=1;exitY=0.5;exitDx=0;exitDy=0;exitPerimeter=0;entryX=0.5;entryY=0;entryDx=0;entryDy=0;strokeWidth=2;" edge="1" parent="Ue5ERrAMfguvgAMBEAyv-38" source="Ue5ERrAMfguvgAMBEAyv-10" target="Ue5ERrAMfguvgAMBEAyv-40">
          <mxGeometry relative="1" as="geometry">
            <Array as="points">
              <mxPoint x="197" y="225" />
              <mxPoint x="197" y="84" />
              <mxPoint x="308" y="84" />
            </Array>
          </mxGeometry>
        </mxCell>
        <mxCell id="Ue5ERrAMfguvgAMBEAyv-74" style="edgeStyle=orthogonalEdgeStyle;rounded=0;orthogonalLoop=1;jettySize=auto;html=1;exitX=1;exitY=0.5;exitDx=0;exitDy=0;entryX=0.001;entryY=0.469;entryDx=0;entryDy=0;entryPerimeter=0;strokeWidth=2;" edge="1" parent="Ue5ERrAMfguvgAMBEAyv-38" source="Ue5ERrAMfguvgAMBEAyv-42" target="Ue5ERrAMfguvgAMBEAyv-58">
          <mxGeometry relative="1" as="geometry">
            <Array as="points">
              <mxPoint x="387" y="308" />
              <mxPoint x="387" y="215" />
            </Array>
          </mxGeometry>
        </mxCell>
        <mxCell id="Ue5ERrAMfguvgAMBEAyv-82" style="edgeStyle=orthogonalEdgeStyle;rounded=0;orthogonalLoop=1;jettySize=auto;html=1;exitX=1;exitY=0.5;exitDx=0;exitDy=0;entryX=0;entryY=0.5;entryDx=0;entryDy=0;strokeWidth=2;" edge="1" parent="Ue5ERrAMfguvgAMBEAyv-38" source="Ue5ERrAMfguvgAMBEAyv-58" target="Ue5ERrAMfguvgAMBEAyv-75">
          <mxGeometry relative="1" as="geometry" />
        </mxCell>
        <mxCell id="Ue5ERrAMfguvgAMBEAyv-83" style="edgeStyle=orthogonalEdgeStyle;rounded=0;orthogonalLoop=1;jettySize=auto;html=1;exitX=1;exitY=0.5;exitDx=0;exitDy=0;entryX=0.011;entryY=0.468;entryDx=0;entryDy=0;entryPerimeter=0;strokeWidth=2;" edge="1" parent="Ue5ERrAMfguvgAMBEAyv-38" source="Ue5ERrAMfguvgAMBEAyv-75" target="Ue5ERrAMfguvgAMBEAyv-76">
          <mxGeometry relative="1" as="geometry" />
        </mxCell>
      </root>
    </mxGraphModel>
  </diagram>
</mxfile>
